<svg xmlns="http://www.w3.org/2000/svg" width="700" height="400" viewBox="0 0 185.208 105.833"><path d="M8.127 6.426h168.955v92.982H8.127z" fill="#fff"/><g stroke="#000" stroke-width="1.707" stroke-linecap="round"><path d="M32.778 42.939l-6.402-14.08 14.08 6.4-5.6 2.078z" fill="#fff" stroke-linejoin="round"/><path d="M34.855 37.337l5.173 5.173" fill="none"/></g><g transform="translate(40.89 -23.095) scale(.61687)" stroke="#000" stroke-width="2.646"><rect width="39.688" height="26.458" x="63.5" y="141.652" rx="2.646" ry="2.646" fill="#fff"/><path d="M79.45 168.935h7.787l1.587 7.56h-10.96z" stroke-linecap="round" stroke-linejoin="round"/></g><path d="M82.524 27.864h19.65L94.36 38.629v7.01l-4.02-1.25v-5.76z" fill="#fff" stroke="#000" stroke-width="1.707" stroke-linecap="round" stroke-linejoin="round"/><g transform="matrix(.47492 0 0 .64512 70.518 8.475)" fill="#fff" stroke="#000" stroke-width="3.084" stroke-linecap="round" stroke-linejoin="round"><path d="M197.156 54.652c0 2.604-8.969 4.714-20.033 4.714-11.063 0-20.032-2.11-20.032-4.714l-.083-21.36 40.267-.356z"/><ellipse ry="4.714" rx="20.033" cy="33.389" cx="177.141"/><path d="M197.174 44.167c0 2.604-8.97 4.714-20.033 4.714-11.064 0-20.033-2.11-20.033-4.714"/></g><text word-spacing="0" letter-spacing="0" font-size="6.828" font-weight="400" y="23.101" x="20.602" style="line-height:1.25" font-family="sans-serif" stroke-width=".171" transform="translate(-.63 -.028)"><tspan font-weight="700" style="-inkscape-font-specification:'Fira Code Bold'" y="23.101" x="20.602" font-family="Fira Code">ACTION</tspan></text><text word-spacing="0" letter-spacing="0" font-size="6.828" font-weight="400" y="23.101" x="78.921" style="line-height:1.25" font-family="sans-serif" stroke-width=".171" transform="translate(-.63 -.028)"><tspan font-weight="700" style="-inkscape-font-specification:'Fira Code Bold'" y="23.101" x="78.921" font-family="Fira Code">REDUCER</tspan></text><text word-spacing="0" letter-spacing="0" font-size="6.828" font-weight="400" y="23.101" x="144.16" style="line-height:1.25" font-family="sans-serif" stroke-width=".171" transform="translate(-.63 -.028)"><tspan font-weight="700" style="-inkscape-font-specification:'Fira Code Bold'" y="23.101" x="144.16" font-family="Fira Code">STORE</tspan></text><text word-spacing="0" letter-spacing="0" font-size="6.528" font-weight="400" y="74.918" x="89.617" style="line-height:1.25" font-family="sans-serif" stroke-width=".163" transform="translate(-.63 -.028)"><tspan y="74.918" x="89.617">UI</tspan></text><g fill="#ccc"><path d="M65.733 31.586l8.5 4.416-8.5 4.416z"/><path d="M52.24 35.193h13.813v2.024H52.24z"/></g><g fill="#ccc"><path d="M125.718 31.586l8.5 4.416-8.5 4.416z"/><path d="M112.225 35.193h13.813v2.024h-13.813z"/></g><g fill="#119bbd"><path d="M122.387 77.933l-8.5-4.417 8.5-4.416z"/><path d="M155.989 74.326h-36.303v-2.024h36.303z"/><path d="M155.989 56.355v17.97h-2.024v-17.97z"/></g><g fill="#66bc65"><path d="M32.17 74.802h36.3v-2.024h-36.3z"/><path d="M32.17 56.83V74.8h2.024V56.83z"/><path d="M37.414 59.585l-4.416-8.5-4.416 8.5z"/></g><text word-spacing="0" letter-spacing="0" font-size="5.701" font-weight="400" y="83.107" x="37.419" style="line-height:1.25" font-family="sans-serif" stroke-width=".143" transform="translate(-.63 -.028)"><tspan y="83.107" x="37.419">dispatch</tspan></text><text word-spacing="0" letter-spacing="0" font-size="5.701" font-weight="400" y="83.659" x="126.591" style="line-height:1.25" font-family="sans-serif" stroke-width=".143" transform="translate(-.63 -.028)"><tspan y="83.659" x="126.591">subscribe</tspan></text></svg>